<?xml version="1.0" encoding="UTF-8"?>
<svg version="1.1" xmlns="http://www.w3.org/2000/svg" width="209" height="44">
<path d="M0 0 C68.97 0 137.94 0 209 0 C209 14.52 209 29.04 209 44 C140.03 44 71.06 44 0 44 C0 29.48 0 14.96 0 0 Z " fill="#0E0E0E" transform="translate(0,0)"/>
<path d="M0 0 C10.56 0 21.12 0 32 0 C33.12562401 5.62812005 33.12562401 5.62812005 31.19921875 9.79296875 C30.59883789 11.1087793 30.59883789 11.1087793 29.98632812 12.45117188 C29.55771484 13.35416016 29.12910156 14.25714844 28.6875 15.1875 C28.27048828 16.10208984 27.85347656 17.01667969 27.42382812 17.95898438 C24.3084757 24.6915243 24.3084757 24.6915243 22 27 C19.75341797 27.22705078 19.75341797 27.22705078 16.9921875 27.1953125 C15.65969971 27.18781982 15.65969971 27.18781982 14.30029297 27.18017578 C13.16994629 27.16196777 12.03959961 27.14375977 10.875 27.125 C7.28625 27.08375 3.6975 27.0425 0 27 C0 18.09 0 9.18 0 0 Z " fill="#00A6E0" transform="translate(46,11)"/>
<path d="M0 0 C0.91644287 0.00523682 1.83288574 0.01047363 2.77709961 0.01586914 C3.66792236 0.0183667 4.55874512 0.02086426 5.4765625 0.0234375 C7.18573853 0.03709351 7.18573853 0.03709351 8.92944336 0.05102539 C14.34350586 0.08196289 14.34350586 0.08196289 19.86694336 0.11352539 C19.86694336 9.02352539 19.86694336 17.93352539 19.86694336 27.11352539 C9.30694336 27.11352539 -1.25305664 27.11352539 -12.13305664 27.11352539 C-13.15689959 21.99431066 -13.20708658 21.38319351 -11.07836914 17.06665039 C-10.62848633 16.13981445 -10.17860352 15.21297852 -9.71508789 14.25805664 C-9.23426758 13.30286133 -8.75344727 12.34766602 -8.25805664 11.36352539 C-7.7849707 10.39286133 -7.31188477 9.42219727 -6.82446289 8.42211914 C-2.76213469 0.14700614 -2.76213469 0.14700614 0 0 Z " fill="#E92B3F" transform="translate(23.133056640625,10.886474609375)"/>
<path d="M0 0 C1.15628906 -0.04253906 1.15628906 -0.04253906 2.3359375 -0.0859375 C5.65833945 0.58307859 6.68604244 1.5915187 8.625 4.375 C9.23980871 7.28775801 9.32081878 10.15488391 9.375 13.125 C9.40464844 13.91777344 9.43429688 14.71054687 9.46484375 15.52734375 C9.53527787 17.47602094 9.58243482 19.42551495 9.625 21.375 C6.95833333 21.375 4.29166667 21.375 1.625 21.375 C-0.1075 21.4678125 -0.1075 21.4678125 -1.875 21.5625 C-5.375 21.375 -5.375 21.375 -7.3125 20.25 C-8.92465675 17.4050175 -8.89888687 15.5838071 -8.375 12.375 C-6.3125 10 -6.3125 10 -3.375 8.375 C0.4375 8.125 0.4375 8.125 3.625 8.375 C3.295 7.055 2.965 5.735 2.625 4.375 C-0.66575996 4.75404208 -0.66575996 4.75404208 -3.375 6.375 C-5.04117115 6.41563832 -6.70888095 6.417721 -8.375 6.375 C-6.31173982 1.95372819 -5.03713906 0.08367341 0 0 Z " fill="#F1F1F1" transform="translate(132.375,13.625)"/>
<path d="M0 0 C2.09375 0.515625 2.09375 0.515625 4.65625 2.578125 C6.38608945 6.1130143 6.39870508 8.62744768 6.09375 12.515625 C1.80375 12.515625 -2.48625 12.515625 -6.90625 12.515625 C-5.91625 14.165625 -4.92625 15.815625 -3.90625 17.515625 C-2.5140625 17.268125 -2.5140625 17.268125 -1.09375 17.015625 C2.09375 16.515625 2.09375 16.515625 5.09375 16.515625 C5.09375 17.505625 5.09375 18.495625 5.09375 19.515625 C2.63317818 21.97619682 1.68653095 21.89309615 -1.71875 22.015625 C-5.77530342 21.91582557 -6.68868918 21.68532244 -10.03125 19.078125 C-12.22661635 15.76155369 -12.6379637 12.63274803 -12.37890625 8.70703125 C-10.93440673 2.0098062 -6.64179593 -0.48706504 0 0 Z " fill="#F0F0F0" transform="translate(177.90625,13.484375)"/>
<path d="M0 0 C3.5060303 0.86943897 4.94966563 2.56083702 6.9375 5.48046875 C7.25 9.29296875 7.25 9.29296875 6.9375 12.48046875 C2.6475 12.48046875 -1.6425 12.48046875 -6.0625 12.48046875 C-5.7325 14.13046875 -5.4025 15.78046875 -5.0625 17.48046875 C-1.11522412 17.65989038 1.5355513 17.57397564 4.9375 15.48046875 C5.9275 16.96546875 5.9275 16.96546875 6.9375 18.48046875 C4.30451229 21.22793419 2.11616359 21.76645872 -1.5625 21.91796875 C-4.88481281 21.81414647 -5.81967984 21.66258387 -8.5625 19.60546875 C-11.73396482 15.11256025 -11.78912338 10.86255124 -11.0625 5.48046875 C-8.13310121 0.90328314 -5.26018916 -0.36861174 0 0 Z " fill="#F0F0F0" transform="translate(100.0625,13.51953125)"/>
<path d="M0 0 C0.86625 -0.00773438 1.7325 -0.01546875 2.625 -0.0234375 C5.43606469 0.44815559 6.35668861 1.0722018 8 3.375 C8 4.365 8 5.355 8 6.375 C6.35 6.375 4.7 6.375 3 6.375 C2.67 5.715 2.34 5.055 2 4.375 C0.68 4.375 -0.64 4.375 -2 4.375 C-2.33 5.695 -2.66 7.015 -3 8.375 C-2.37351563 8.49617188 -1.74703125 8.61734375 -1.1015625 8.7421875 C0.12433594 8.99355469 0.12433594 8.99355469 1.375 9.25 C2.18710938 9.41242187 2.99921875 9.57484375 3.8359375 9.7421875 C6 10.375 6 10.375 8 12.375 C8.55688623 17.60973054 8.55688623 17.60973054 6.7890625 20.0390625 C3.82327339 22.25369105 0.96727076 21.83759583 -2.61328125 21.73828125 C-5 21.375 -5 21.375 -7.625 19.5 C-9 17.375 -9 17.375 -9 15.375 C-7.35 15.375 -5.7 15.375 -4 15.375 C-4 16.035 -4 16.695 -4 17.375 C-1.36 17.375 1.28 17.375 4 17.375 C3.67 16.385 3.34 15.395 3 14.375 C0.96722527 13.42382642 0.96722527 13.42382642 -1.4375 12.8125 C-5.80269058 11.57230942 -5.80269058 11.57230942 -8 9.375 C-8.55648937 4.14399988 -8.55648937 4.14399988 -6.79296875 1.70703125 C-4.42916563 -0.04908392 -2.92146841 -0.02608454 0 0 Z " fill="#F2F2F2" transform="translate(154,13.625)"/>
<path d="M0 0 C3.63 0 7.26 0 11 0 C11 1.32 11 2.64 11 4 C9.35 4.66 7.7 5.32 6 6 C5.67 10.95 5.34 15.9 5 21 C3.35 21 1.7 21 0 21 C0 14.07 0 7.14 0 0 Z " fill="#F2F2F2" transform="translate(188,14)"/>
<path d="M0 0 C2.475 0.495 2.475 0.495 5 1 C5.33 0.67 5.66 0.34 6 0 C7.66617115 -0.04063832 9.33388095 -0.042721 11 0 C11 1.32 11 2.64 11 4 C9.35 4.33 7.7 4.66 6 5 C5.67 10.28 5.34 15.56 5 21 C3.35 21 1.7 21 0 21 C0 14.07 0 7.14 0 0 Z " fill="#F0F0F0" transform="translate(111,14)"/>
<path d="M0 0 C0.042721 1.66611905 0.04063832 3.33382885 0 5 C-1 6 -1 6 -4.0625 6.0625 C-5.5165625 6.0315625 -5.5165625 6.0315625 -7 6 C-7 4.35 -7 2.7 -7 1 C-4.53721199 -0.231394 -2.7204945 -0.07159196 0 0 Z " fill="#1A1A1A" transform="translate(136,25)"/>
<path d="M0 0 C1.98 0 3.96 0 6 0 C6.33 1.32 6.66 2.64 7 4 C4.36 4 1.72 4 -1 4 C-0.67 2.68 -0.34 1.36 0 0 Z " fill="#131313" transform="translate(172,18)"/>
<path d="M0 0 C1.98 0 3.96 0 6 0 C6.33 1.32 6.66 2.64 7 4 C4.36 4 1.72 4 -1 4 C-0.67 2.68 -0.34 1.36 0 0 Z " fill="#121212" transform="translate(95,18)"/>
</svg>
