<?xml version="1.0" encoding="UTF-8"?>
<svg version="1.1" xmlns="http://www.w3.org/2000/svg" width="640" height="640">
<path d="M0 0 C1.02409973 -0.00705963 2.04819946 -0.01411926 3.10333252 -0.02139282 C45.81179953 -0.24899128 45.81179953 -0.24899128 64.90234375 3.203125 C66.03720215 3.40180176 67.17206055 3.60047852 68.34130859 3.80517578 C128.22428255 14.54308985 183.58446001 41.07124754 228.5703125 82.08984375 C230.65269111 83.97689037 232.76737439 85.81370733 234.90234375 87.640625 C259.4986708 109.10651042 279.29529818 136.7189402 294.90234375 165.203125 C295.33530762 165.9854248 295.76827148 166.76772461 296.21435547 167.57373047 C319.25799905 209.38921947 333.88448755 258.37769554 334.10546875 306.30078125 C334.11252838 307.32488098 334.11958801 308.34898071 334.12686157 309.40411377 C334.35446003 352.11258078 334.35446003 352.11258078 330.90234375 371.203125 C330.70366699 372.3379834 330.50499023 373.4728418 330.30029297 374.64208984 C319.5623789 434.5250638 293.03422121 489.88524126 252.015625 534.87109375 C250.12857838 536.95347236 248.29176142 539.06815564 246.46484375 541.203125 C224.99895833 565.79945205 197.38652855 585.59607943 168.90234375 601.203125 C167.72889404 601.8525708 167.72889404 601.8525708 166.53173828 602.51513672 C124.71624928 625.5587803 75.72777321 640.1852688 27.8046875 640.40625 C26.78058777 640.41330963 25.75648804 640.42036926 24.70135498 640.42764282 C-18.00711203 640.65524128 -18.00711203 640.65524128 -37.09765625 637.203125 C-38.23251465 637.00444824 -39.36737305 636.80577148 -40.53662109 636.60107422 C-100.41959505 625.86316015 -155.77977251 599.33500246 -200.765625 558.31640625 C-202.84800361 556.42935963 -204.96268689 554.59254267 -207.09765625 552.765625 C-231.6939833 531.29973958 -251.49061068 503.6873098 -267.09765625 475.203125 C-267.74710205 474.02967529 -267.74710205 474.02967529 -268.40966797 472.83251953 C-291.45331155 431.01703053 -306.07980005 382.02855446 -306.30078125 334.10546875 C-306.30784088 333.08136902 -306.31490051 332.05726929 -306.32217407 331.00213623 C-306.54977253 288.29366922 -306.54977253 288.29366922 -303.09765625 269.203125 C-302.89897949 268.0682666 -302.70030273 266.9334082 -302.49560547 265.76416016 C-291.7576914 205.8811862 -265.22953371 150.52100874 -224.2109375 105.53515625 C-222.32389088 103.45277764 -220.48707392 101.33809436 -218.66015625 99.203125 C-197.19427083 74.60679795 -169.58184105 54.81017057 -141.09765625 39.203125 C-140.31535645 38.77016113 -139.53305664 38.33719727 -138.72705078 37.89111328 C-96.91156178 14.8474697 -47.92308571 0.2209812 0 0 Z " fill="#2828FB" transform="translate(306.09765625,-0.203125)"/>
<path d="M0 0 C4.07371377 1.68727786 8.15252581 3.36197695 12.23144531 5.03662109 C20.61812623 8.48169204 29.00004607 11.93822127 37.37988281 15.39990234 C35.56542125 19.34721605 33.26402623 21.55825749 30.00488281 24.46240234 C28.91617985 25.44008734 27.82764286 26.41795719 26.73925781 27.39599609 C26.18173828 27.89341309 25.62421875 28.39083008 25.04980469 28.90332031 C22.4286635 31.25238398 19.84362812 33.64027693 17.25488281 36.02490234 C12.87768832 40.04314855 8.4691166 44.02487619 4.04003906 47.98583984 C1.98738968 49.84859655 -0.04247123 51.72781228 -2.06152344 53.62646484 C-2.6513501 54.17890869 -3.24117676 54.73135254 -3.84887695 55.30053711 C-5.01345518 56.39320203 -6.17422661 57.48994108 -7.33081055 58.59106445 C-11.39749654 62.39990234 -11.39749654 62.39990234 -13.62011719 62.39990234 C-13.62011719 63.05990234 -13.62011719 63.71990234 -13.62011719 64.39990234 C-14.87792969 65.66943359 -14.87792969 65.66943359 -16.74511719 67.21240234 C-19.63521517 69.65547078 -22.4465989 72.15461958 -25.19824219 74.75146484 C-25.82327637 75.34080811 -26.44831055 75.93015137 -27.09228516 76.53735352 C-28.35505959 77.73191804 -29.61454026 78.92997461 -30.87060547 80.1315918 C-35.40026661 84.39990234 -35.40026661 84.39990234 -37.62011719 84.39990234 C-37.62011719 140.82990234 -37.62011719 197.25990234 -37.62011719 255.39990234 C-48.87084415 253.14975695 -48.87084415 253.14975695 -53.35302734 251.72680664 C-54.36581757 251.4080658 -55.37860779 251.08932495 -56.42208862 250.76092529 C-57.49032867 250.41877991 -58.55856873 250.07663452 -59.65917969 249.72412109 C-60.8021048 249.3625592 -61.94502991 249.00099731 -63.12258911 248.628479 C-66.83179723 247.45339786 -70.53848354 246.27057664 -74.24511719 245.08740234 C-76.17337189 244.47461018 -78.10189084 243.86265513 -80.03044128 243.25079441 C-96.31246285 238.08444092 -112.56994449 232.84366227 -128.8081665 227.54129028 C-151.62656714 220.09056705 -174.54458827 213.01646036 -197.62011719 206.39990234 C-197.60851562 207.52783203 -197.59691406 208.65576172 -197.58496094 209.81787109 C-197.25340471 255.8547004 -197.25340471 255.8547004 -207.62011719 267.39990234 C-211.18281314 270.72923393 -214.90219176 273.81122633 -218.70605469 276.859375 C-220.71272026 278.47443364 -222.69940361 280.11161382 -224.68261719 281.75537109 C-228.27007855 284.72870631 -231.86913671 287.68748324 -235.47363281 290.64013672 C-237.55113239 292.34334611 -239.62479336 294.0511409 -241.69824219 295.75927734 C-277.22174163 324.93588843 -277.22174163 324.93588843 -296.65795898 324.80883789 C-303.8810318 324.06334236 -310.10911886 321.08534029 -316.68261719 318.14990234 C-318.1765449 317.50556276 -319.67160449 316.86384181 -321.16772461 316.22460938 C-324.20439873 314.92416273 -327.23549891 313.61190359 -330.26269531 312.28955078 C-336.61378274 309.52323563 -343.02435067 306.90548341 -349.43261719 304.27490234 C-351.78182443 303.30024164 -354.13078313 302.3249817 -356.47949219 301.34912109 C-360.80212775 299.55761282 -365.13108408 297.78355996 -369.46980286 296.03149414 C-372.08179164 294.97589281 -374.69104235 293.91361394 -377.30014038 292.85089111 C-379.10772812 292.11777561 -380.91914729 291.39412858 -382.73071289 290.67089844 C-396.93022654 284.87830599 -410.9385842 277.68324236 -417.66942978 263.13131332 C-418.68699582 260.20775397 -418.87161479 258.0103469 -418.87408447 254.92388916 C-418.87972412 253.83618225 -418.88536377 252.74847534 -418.89117432 251.62780762 C-418.88510162 249.85258728 -418.88510162 249.85258728 -418.87890625 248.04150391 C-418.88241089 246.78726624 -418.88591553 245.53302856 -418.88952637 244.24078369 C-418.89681548 240.80661574 -418.89511302 237.37268912 -418.8887682 233.93853474 C-418.88369397 230.33660375 -418.88840401 226.73468287 -418.89154053 223.13275146 C-418.8951779 217.08018145 -418.89038904 211.02766025 -418.88085938 204.97509766 C-418.86999491 197.9945229 -418.87348666 191.01406516 -418.88451219 184.03349328 C-418.89361512 178.02819582 -418.89485509 172.02293343 -418.88963485 166.01763129 C-418.8865291 162.43644023 -418.88606681 158.85530398 -418.89270782 155.27411652 C-418.8996063 151.27463465 -418.89001962 147.27535129 -418.87890625 143.27587891 C-418.88295471 142.10049561 -418.88700317 140.9251123 -418.89117432 139.71411133 C-418.80763266 123.43452833 -413.29811864 111.52197383 -401.80761719 100.08740234 C-396.03145863 94.49816457 -389.95951357 89.34025952 -383.62011719 84.39990234 C-382.51847142 83.50968692 -381.4182813 82.61766796 -380.31933594 81.72412109 C-369.90073917 73.30493472 -359.14366171 66.02068389 -347.18261719 59.96240234 C-346.53244629 59.63216064 -345.88227539 59.30191895 -345.21240234 58.96166992 C-328.17873284 50.60235176 -313.4821709 54.80587539 -296.44580078 60.47607422 C-292.17935018 61.87094627 -287.87808987 63.12201535 -283.55761719 64.33740234 C-282.83848145 64.54840576 -282.1193457 64.75940918 -281.37841797 64.97680664 C-276.5882589 66.32572001 -272.18492704 67.44977065 -267.44433594 65.50927734 C-258.95806829 60.11033559 -250.80614517 54.23945757 -242.62011719 48.39990234 C-208.89390389 24.36924333 -208.89390389 24.36924333 -189.62011719 26.39990234 C-182.88640659 27.72741974 -176.45034108 30.11404742 -169.99511719 32.39990234 C-168.23912232 32.9978331 -166.48219214 33.59302368 -164.72436523 34.18554688 C-160.45221485 35.63155563 -156.19035008 37.1050625 -151.93243408 38.59240723 C-147.46315917 40.15314385 -142.98828934 41.69724477 -138.50732422 43.22412109 C-136.5204903 43.90312166 -134.53798002 44.59496978 -132.56103516 45.30224609 C-131.70010254 45.60001953 -130.83916992 45.89779297 -129.95214844 46.20458984 C-129.22745361 46.46224121 -128.50275879 46.71989258 -127.75610352 46.98535156 C-125.06583011 47.50747801 -123.23733135 47.18015849 -120.62011719 46.39990234 C-118.52275864 44.72258699 -116.65246868 43.08031037 -114.74511719 41.21240234 C-113.68845442 40.21173783 -112.6311658 39.21173377 -111.57324219 38.21240234 C-111.06728516 37.72900391 -110.56132812 37.24560547 -110.04003906 36.74755859 C-102.29837806 29.39990234 -102.29837806 29.39990234 -99.62011719 29.39990234 C-99.62011719 28.73990234 -99.62011719 28.07990234 -99.62011719 27.39990234 C-98.10860173 26.04892861 -96.53198406 24.77062889 -94.93261719 23.52490234 C-90.49268771 19.9843432 -86.30743915 16.30015136 -82.18261719 12.39990234 C-55.58985522 -12.45229975 -32.39077856 -13.42276473 0 0 Z " fill="#FBFAFC" transform="translate(510.6201171875,162.60009765625)"/>
<path d="M0 0 C5.6401845 0.06463756 11.23808143 0.50669016 16.85546875 0.9921875 C18.4324353 1.12645142 18.4324353 1.12645142 20.04125977 1.26342773 C42.27241101 3.22162976 42.27241101 3.22162976 44.16796875 5.1171875 C44.18502796 7.28025729 44.12957136 9.44391301 44.046875 11.60546875 C43.99772226 13.01163172 43.94873954 14.41780064 43.89990234 15.82397461 C43.87208679 16.57371552 43.84427124 17.32345642 43.81561279 18.09591675 C43.31143243 31.91533781 43.05296389 45.72632477 43.04296875 59.5546875 C43.04056183 60.30255524 43.03815491 61.05042297 43.03567505 61.82095337 C42.92144766 82.3795694 42.92144766 82.3795694 50.98046875 100.9296875 C57.4864644 107.43568315 66.16814639 110.30820315 74.6015625 113.53125 C75.8885092 114.03154999 77.17504764 114.53290133 78.4611969 115.0352478 C83.88557693 117.15146973 89.31809818 119.24648142 94.75170898 121.33886719 C98.09084895 122.62556104 101.42561976 123.92307941 104.75804329 125.22706223 C106.64104715 125.95979405 108.52875571 126.67935478 110.41685486 127.39883423 C111.55216141 127.84294647 112.68746796 128.28705872 113.85717773 128.74462891 C114.86119125 129.13147858 115.86520477 129.51832825 116.89964294 129.91690063 C119.16796875 131.1171875 119.16796875 131.1171875 120.16796875 134.1171875 C120.26320889 136.19881355 120.29869983 138.28338488 120.30078125 140.3671875 C120.30207031 141.61628906 120.30335938 142.86539063 120.3046875 144.15234375 C120.30082031 145.46074219 120.29695312 146.76914062 120.29296875 148.1171875 C120.29683594 149.39464844 120.30070313 150.67210937 120.3046875 151.98828125 C120.27960822 176.49073348 120.27960822 176.49073348 116.16796875 182.1171875 C111.19545733 185.89961734 106.20783257 187.69654312 99.89990234 187.53222656 C93.73759663 186.59604071 88.0173749 183.86978167 82.29296875 181.4921875 C80.8402958 180.90229231 79.38699356 180.31394471 77.93310547 179.72705078 C74.88590228 178.4947525 71.84219393 177.25433121 68.80078125 176.0078125 C63.52655089 173.84976955 58.23288839 171.74171942 52.93730164 169.63676453 C47.0941707 167.31368184 41.25983038 164.96925481 35.42695618 162.62055969 C31.35061133 160.9827239 27.26559574 159.37012419 23.16918945 157.78314209 C21.28167153 157.05048239 19.39700531 156.31095357 17.51318359 155.56884766 C15.24388449 154.67649715 12.96978741 153.7962015 10.68994141 152.93115234 C1.71719926 149.37035886 -5.11916588 144.930787 -9.140625 135.9140625 C-10.34820621 132.77571585 -10.95815812 130.28426329 -10.96574402 126.94276428 C-10.970009 126.09247147 -10.97427399 125.24217865 -10.97866821 124.36611938 C-10.97821503 123.4358493 -10.97776184 122.50557922 -10.97729492 121.54711914 C-10.98065353 120.56443558 -10.98401215 119.58175201 -10.98747253 118.56929016 C-10.99700319 115.30529527 -10.99892782 112.04135172 -11 108.77734375 C-11.0032151 106.49783813 -11.00657936 104.21833271 -11.01008606 101.93882751 C-11.01608538 97.14451623 -11.01792553 92.35022298 -11.01733398 87.5559082 C-11.01723322 81.46526561 -11.03079172 75.37474187 -11.04810619 69.28412724 C-11.05933621 64.56436148 -11.06124972 59.84462324 -11.06072426 55.1248455 C-11.06189149 52.88338251 -11.0662411 50.6419185 -11.07405663 48.40046883 C-11.10827077 37.5584155 -11.00312964 26.76250003 -10.06762695 15.95483398 C-10.00680781 15.14564294 -9.94598867 14.33645189 -9.88332653 13.50273991 C-9.23195508 7.0547919 -7.32405231 0.22397713 0 0 Z " fill="#2828FB" transform="translate(118.83203125,285.8828125)"/>
<path d="M0 0 C1.23073242 0.35336426 1.23073242 0.35336426 2.48632812 0.71386719 C32.3464243 9.32086552 32.3464243 9.32086552 42 16 C42.33 16.99 42.66 17.98 43 19 C38.10717235 21.01229029 33.23354338 22.96543577 28.1875 24.5625 C24.78942615 25.66345212 22.02981534 27.08643241 19 29 C17.93394531 29.44214844 16.86789062 29.88429687 15.76953125 30.33984375 C12.0513786 31.90747113 8.72440195 33.90230172 5.3125 36.0625 C-4.09683426 42 -4.09683426 42 -8 42 C-8.2165625 42.55816406 -8.433125 43.11632812 -8.65625 43.69140625 C-10.42702765 46.73364343 -12.82113086 48.72532999 -15.5 50.9375 C-16.34691406 51.64495361 -16.34691406 51.64495361 -17.2109375 52.36669922 C-24.84346883 58.64183563 -32.92626072 64.31313255 -41 70 C-42.15893232 70.82410885 -43.31779356 71.64831769 -44.4765625 72.47265625 C-64.449434 86.52305097 -81.78886043 98.16170354 -107.14892578 94.55175781 C-122.49250327 91.81937168 -137.19497587 87.21394835 -151.87109375 82.05078125 C-157.08915285 80.23504054 -162.33708507 78.84285719 -167.71899414 77.60229492 C-170 77 -170 77 -171 76 C-181.34628474 74.05994776 -191.89924764 73.28292926 -202.375 72.375 C-203.90107207 72.23992639 -205.42711397 72.10451146 -206.953125 71.96875 C-210.63507881 71.64191554 -214.31741379 71.31964003 -218 71 C-213.87539129 65.44505632 -209.68973379 60.09224587 -205 55 C-204.28199219 54.21625 -203.56398437 53.4325 -202.82421875 52.625 C-189.96473524 39.15516457 -170.51581755 25.01010125 -151.33984375 23.76171875 C-142.29614451 23.59242783 -134.8781316 24.94965477 -126.41796875 27.9453125 C-111.96629297 33.0578954 -96.58080699 38.40370874 -81.75 31.6875 C-75.13986593 27.77481618 -69.01188597 23.06318587 -62.89794922 18.42578125 C-58.73320787 15.29713583 -54.46965139 12.30442905 -50.22265625 9.2890625 C-48.20354907 7.85488455 -46.18965155 6.41331222 -44.18359375 4.9609375 C-41.81593136 3.26200418 -39.42654788 1.61341896 -37 0 C-36.36191406 -0.43441406 -35.72382813 -0.86882812 -35.06640625 -1.31640625 C-24.31107554 -7.73382811 -11.14261111 -3.25032951 0 0 Z " fill="#FD0202" transform="translate(333,215)"/>
<path d="M0 0 C11.24869927 2.24973985 11.24869927 2.24973985 16.20703125 3.8046875 C17.28919922 4.14113281 18.37136719 4.47757813 19.48632812 4.82421875 C20.58396484 5.17097656 21.68160156 5.51773438 22.8125 5.875 C23.89853516 6.21402344 24.98457031 6.55304688 26.10351562 6.90234375 C28.29713735 7.58711825 30.49001134 8.2742927 32.68212891 8.96386719 C37.05884145 10.33066395 41.44781659 11.65628823 45.83862305 12.97705078 C49.61128689 14.19779845 53.29550021 15.58606878 57 17 C57.03117376 27.81248891 57.05117497 38.62497311 57.0625 49.4375 C57.06335602 50.24889812 57.06421204 51.06029625 57.06509399 51.8962822 C57.08839697 76.95587452 56.91942852 102.00636918 56.5 127.0625 C56.48804218 127.77726879 56.47608437 128.49203758 56.46376419 129.22846603 C56.31915545 137.81916292 56.16500607 146.40967003 56 155 C36.62844438 148.59790351 36.62844438 148.59790351 28.5625 145.5625 C27.16803804 145.04278281 25.77350202 144.52326428 24.37890625 144.00390625 C21.71634766 143.01197266 21.71634766 143.01197266 19 142 C9.595 138.535 9.595 138.535 0 135 C0 90.45 0 45.9 0 0 Z " fill="#2828FB" transform="translate(399,242)"/>
<path d="M0 0 C0.77585449 0.18997559 1.55170898 0.37995117 2.35107422 0.57568359 C13.78532492 3.48166768 24.21531777 7.17145258 30.84375 17.4609375 C33.9383133 24.25643123 34.32787523 30.92628922 34.37109375 38.2734375 C34.38012222 39.23722321 34.3891507 40.20100891 34.39845276 41.19400024 C34.41288957 43.2227267 34.42182554 45.25149901 34.42553711 47.28027344 C34.43744021 50.3595317 34.48669711 53.43678806 34.53710938 56.515625 C34.54657495 58.49738617 34.55380934 60.4791595 34.55859375 62.4609375 C34.57812607 63.36854828 34.59765839 64.27615906 34.61778259 65.21127319 C34.56107553 73.36929119 31.76091497 79.63555713 26.60546875 85.91796875 C25.40857422 87.04138672 25.40857422 87.04138672 24.1875 88.1875 C23.3109375 89.01765625 22.434375 89.8478125 21.53125 90.703125 C20.6959375 91.46109375 19.860625 92.2190625 19 93 C18.02546875 93.88945312 18.02546875 93.88945312 17.03125 94.796875 C15.04641091 96.56304537 13.02700478 98.28238016 11 100 C10.07960938 100.79792969 9.15921875 101.59585938 8.2109375 102.41796875 C-0.00292654 109.50270323 -8.54623444 116.10615767 -17.2109375 122.62841797 C-18.7941832 123.84221087 -20.33796974 125.10709725 -21.875 126.37890625 C-24 128 -24 128 -26 128 C-25.855625 127.10925781 -25.71125 126.21851563 -25.5625 125.30078125 C-24.14352695 115.62045623 -23.78002453 106.02986542 -23.75 96.25 C-23.74097656 95.04384033 -23.73195312 93.83768066 -23.72265625 92.5949707 C-23.75596167 82.42224712 -23.93373592 71.66538266 -28.8125 62.5 C-29.29332031 61.5615625 -29.77414063 60.623125 -30.26953125 59.65625 C-34.01321267 53.90974128 -38.18891944 51.05564389 -44.5 48.625 C-45.58269165 48.19272095 -45.58269165 48.19272095 -46.68725586 47.75170898 C-55.98443972 44.11128688 -65.49526841 41.04694459 -75 38 C-70.84463479 33.55433981 -66.23263359 30.06344057 -61.3125 26.5 C-60.48032959 25.89196533 -59.64815918 25.28393066 -58.79077148 24.6574707 C-54.59409249 21.59558575 -50.38360617 18.55285167 -46.171875 15.51171875 C-45.40472168 14.95677734 -44.63756836 14.40183594 -43.84716797 13.83007812 C-42.32872896 12.73838571 -40.80430517 11.65496802 -39.27392578 10.58007812 C-35.96370927 8.24071279 -32.82916124 5.93764514 -29.9453125 3.08203125 C-20.62603144 -5.64324464 -11.43190028 -2.87797603 0 0 Z " fill="#FD0202" transform="translate(262,338)"/>
<path d="M0 0 C-0.33 44.55 -0.66 89.1 -1 135 C-12.24267142 132.75146572 -12.24267142 132.75146572 -17.828125 130.9765625 C-19.64763672 130.40421875 -19.64763672 130.40421875 -21.50390625 129.8203125 C-22.74011719 129.42585937 -23.97632813 129.03140625 -25.25 128.625 C-27.71302997 127.84473707 -30.17657141 127.06608681 -32.640625 126.2890625 C-33.71860352 125.94568848 -34.79658203 125.60231445 -35.90722656 125.24853516 C-41.90268581 123.38246539 -47.95916254 121.71183581 -54 120 C-54.04628837 107.92613441 -54.08185139 95.85228985 -54.10362434 83.77835369 C-54.11407291 78.17227233 -54.12825169 72.56625156 -54.15087891 66.96020508 C-54.17256901 61.55265009 -54.18456054 56.14515348 -54.18975449 50.73755836 C-54.19345714 48.67183322 -54.20068724 46.60611137 -54.21146011 44.540411 C-54.22592406 41.65276495 -54.22798008 38.76536184 -54.22705078 35.87768555 C-54.23424133 35.01885269 -54.24143188 34.16001984 -54.24884033 33.27516174 C-54.22810432 27.34215648 -54.22810432 27.34215648 -52 24 C-50.36037887 23.29730523 -48.71770041 22.60067688 -47.05859375 21.9453125 C-43.86576666 20.47915661 -41.08520617 18.46253941 -38.19140625 16.484375 C-33.30530687 13.17471767 -28.39140595 10.6789792 -22.828125 8.71484375 C-20.84058204 8.00420151 -20.84058204 8.00420151 -18.625 6.5 C-15.33638305 4.62079031 -12.01050671 3.72363454 -8.37890625 2.6953125 C-5.71571468 1.91690839 -2.74840808 0 0 0 Z " fill="#2928FA" transform="translate(377,233)"/>
<path d="M0 0 C0 3 0 3 -1.15820312 4.51464844 C-1.69380859 5.0409082 -2.22941406 5.56716797 -2.78125 6.109375 C-3.37196289 6.69557617 -3.96267578 7.28177734 -4.57128906 7.88574219 C-5.20776367 8.50094727 -5.84423828 9.11615234 -6.5 9.75 C-7.14420898 10.38325195 -7.78841797 11.01650391 -8.45214844 11.66894531 C-12.21794022 15.34746937 -16.0588461 18.8959467 -20.078125 22.296875 C-22.48973932 24.43399663 -24.73539257 26.70794279 -27 29 C-39.4958974 41.59201969 -39.4958974 41.59201969 -44 42 C-46.7578125 41.28515625 -46.7578125 41.28515625 -50.125 40.0625 C-58.5828505 37.07776048 -67.14390798 34.46751926 -75.72314453 31.85571289 C-81.84600602 29.98635185 -87.93683343 28.05509435 -94 26 C-86.752965 18.51139717 -78.83485668 11.79189595 -70.72265625 5.265625 C-68.02458835 3.02046089 -65.48775218 0.660567 -62.9375 -1.75 C-43.09303203 -19.85372517 -21.54941915 -8.95882055 0 0 Z " fill="#FB0403" transform="translate(511,184)"/>
<path d="M0 0 C0 17.16 0 34.32 0 52 C-6.02633373 49.58946651 -11.47612654 46.49081814 -17.125 43.3125 C-18.20265625 42.71244141 -19.2803125 42.11238281 -20.390625 41.49414062 C-27.41438052 37.55491389 -34.25498243 33.39918104 -41 29 C-31.76245763 21.59875503 -22.33423981 14.46780477 -12.8125 7.4375 C-11.55542236 6.50768311 -11.55542236 6.50768311 -10.27294922 5.55908203 C-9.09563232 4.69259033 -9.09563232 4.69259033 -7.89453125 3.80859375 C-7.19175049 3.29095459 -6.48896973 2.77331543 -5.76489258 2.23999023 C-3.70863371 0.79528989 -2.54126664 0 0 0 Z " fill="#2A29F8" transform="translate(305,294)"/>
<path d="M0 0 C5.97610954 1.32802434 10.86091703 2.53358171 16.4375 4.6875 C17.10201172 4.94225098 17.76652344 5.19700195 18.45117188 5.45947266 C20.63678008 6.2995848 22.81846708 7.14936583 25 8 C26.67828134 8.65000836 28.35666946 9.29974109 30.03515625 9.94921875 C34.35980216 11.6251085 38.68073703 13.31028833 43 15 C43 15.99 43 16.98 43 18 C40.7890625 19.8046875 40.7890625 19.8046875 37.625 21.875 C36.43091344 22.67111375 35.23828723 23.46942081 34.046875 24.26953125 C33.39783203 24.70346191 32.74878906 25.13739258 32.08007812 25.58447266 C28.28851105 28.16469635 24.58599981 30.86829779 20.875 33.5625 C20.10889404 34.11687744 19.34278809 34.67125488 18.5534668 35.24243164 C15.17563124 37.68840052 11.80296352 40.14107843 8.44140625 42.609375 C7.45011719 43.33640625 6.45882812 44.0634375 5.4375 44.8125 C4.59058594 45.43769531 3.74367187 46.06289063 2.87109375 46.70703125 C1 48 1 48 0 48 C0 32.16 0 16.32 0 0 Z " fill="#2B2AF7" transform="translate(177,311)"/>
<path d="M0 0 C11.25 2.25 11.25 2.25 15.1328125 3.5078125 C16.3703125 3.90419922 16.3703125 3.90419922 17.6328125 4.30859375 C18.86644531 4.71271484 18.86644531 4.71271484 20.125 5.125 C20.98609375 5.40214844 21.8471875 5.67929688 22.734375 5.96484375 C24.82455334 6.63834566 26.9129901 7.31675654 29 8 C24.59332645 9.39433229 21.35304443 8.08348138 17.125 6.625 C15.73306738 6.15499678 14.33984925 5.68878184 12.9453125 5.2265625 C12.33187988 5.01596191 11.71844727 4.80536133 11.08642578 4.58837891 C8.44255994 3.84280008 5.70960712 3.45160119 3 3 C2.67 45.9 2.34 88.8 2 133 C2.66 133 3.32 133 4 133 C4 133.66 4 134.32 4 135 C5.0209375 135.185625 5.0209375 135.185625 6.0625 135.375 C10.78868357 136.38057097 14.95249472 137.30166315 19 140 C16 141 16 141 0 135 C0 90.45 0 45.9 0 0 Z " fill="#2E2BDD" transform="translate(399,242)"/>
<path d="M0 0 C6.94813587 -0.10080197 13.76646445 0.27683147 20.6875 0.875 C22.26446655 1.00926392 22.26446655 1.00926392 23.87329102 1.14624023 C46.10444226 3.10444226 46.10444226 3.10444226 48 5 C48.01705921 7.16306979 47.96160261 9.32672551 47.87890625 11.48828125 C47.82975351 12.89444422 47.78077079 14.30061314 47.73193359 15.70678711 C47.70411804 16.45652802 47.67630249 17.20626892 47.64764404 17.97872925 C47.14346368 31.79815031 46.88499514 45.60913727 46.875 59.4375 C46.87259308 60.18536774 46.87018616 60.93323547 46.8677063 61.70376587 C46.59961356 78.59218648 46.59961356 78.59218648 50 95 C48 94 48 94 47.18359375 91.75 C46.93738281 90.8425 46.69117188 89.935 46.4375 89 C45.73509107 85.71746634 45.73509107 85.71746634 44 83 C43.90156124 81.47179793 43.87201411 79.93908344 43.87060547 78.40771484 C43.86745331 77.42934662 43.86430115 76.45097839 43.86105347 75.44296265 C43.8630777 74.37639435 43.86510193 73.30982605 43.8671875 72.2109375 C43.86623077 71.11915192 43.86527405 70.02736633 43.86428833 68.90249634 C43.86360599 66.58392276 43.865464 64.26534728 43.86962891 61.94677734 C43.87494573 58.41108849 43.86970169 54.87552846 43.86328125 51.33984375 C43.86394263 49.08854139 43.86522501 46.8372391 43.8671875 44.5859375 C43.86516327 43.53151459 43.86313904 42.47709167 43.86105347 41.39071655 C43.87761122 36.15217045 44.1390392 31.18179224 45 26 C45.13032417 24.38853618 45.23844824 22.7750007 45.31640625 21.16015625 C45.37924805 19.9081543 45.37924805 19.9081543 45.44335938 18.63085938 C45.48267578 17.78330078 45.52199219 16.93574219 45.5625 16.0625 C45.62727539 14.75055664 45.62727539 14.75055664 45.69335938 13.41210938 C45.79846901 11.27488005 45.89963985 9.13745762 46 7 C42.14549212 5.71516404 38.43475861 5.57788252 34.3984375 5.28125 C32 5 32 5 31 4 C29.22130274 3.84235595 27.43681524 3.74899323 25.65234375 3.68359375 C24.57275391 3.64169922 23.49316406 3.59980469 22.38085938 3.55664062 C20.67639648 3.49766602 20.67639648 3.49766602 18.9375 3.4375 C17.79732422 3.39431641 16.65714844 3.35113281 15.48242188 3.30664062 C12.65507805 3.20017161 9.82764262 3.09815793 7 3 C7 2.34 7 1.68 7 1 C4.69 1 2.38 1 0 1 C0 0.67 0 0.34 0 0 Z " fill="#3837DD" transform="translate(115,286)"/>
<path d="M0 0 C0.33 0 0.66 0 1 0 C1.14449742 25.71387246 0.91485903 51.41495233 0.5 77.125 C0.48804218 77.86630535 0.47608437 78.6076107 0.46376419 79.37137985 C0.3146971 88.58101489 0.16001003 97.79054812 0 107 C-3.3 106.01 -6.6 105.02 -10 104 C-5.70600835 102.92650209 -4.80504787 103.20317184 -1 105 C-1.06582275 103.93193115 -1.13164551 102.8638623 -1.19946289 101.76342773 C-2.72699434 76.43776803 -3.14557807 51.39767989 -2.08392334 26.0491333 C-1.95693712 22.94854538 -1.84886703 19.84730361 -1.73828125 16.74609375 C-1.66059239 14.72649489 -1.58133065 12.70695549 -1.5 10.6875 C-1.46479248 9.80416992 -1.42958496 8.92083984 -1.39331055 8.01074219 C-1.1210108 2.2420216 -1.1210108 2.2420216 0 0 Z " fill="#363AE4" transform="translate(455,290)"/>
<path d="M0 0 C0.66 0.33 1.32 0.66 2 1 C-0.83071992 4.61703101 -1.78717492 4.13119582 -7 5 C-7.33 35.69 -7.66 66.38 -8 98 C-7.01 98 -6.02 98 -5 98 C-5 98.66 -5 99.32 -5 100 C-4.319375 99.938125 -3.63875 99.87625 -2.9375 99.8125 C0.91936125 100.05868263 3.51079594 101.35802162 7 103 C3.1280483 104.29065057 0.55767399 103.22324098 -3.1875 102.0625 C-3.84169922 101.86720703 -4.49589844 101.67191406 -5.16992188 101.47070312 C-6.78227407 100.98817437 -8.39146289 100.49509795 -10 100 C-10.04628837 87.92613441 -10.08185139 75.85228985 -10.10362434 63.77835369 C-10.11407291 58.17227233 -10.12825169 52.56625156 -10.15087891 46.96020508 C-10.17256901 41.55265009 -10.18456054 36.14515348 -10.18975449 30.73755836 C-10.19345714 28.67183322 -10.20068724 26.60611137 -10.21146011 24.540411 C-10.22592406 21.65276495 -10.22798008 18.76536184 -10.22705078 15.87768555 C-10.23424133 15.01885269 -10.24143188 14.16001984 -10.24884033 13.27516174 C-10.22810432 7.34215648 -10.22810432 7.34215648 -8 4 C-5.69034152 2.94647157 -3.3570226 1.94280904 -1 1 C-0.67 0.67 -0.34 0.34 0 0 Z " fill="#412AC9" transform="translate(333,253)"/>
<path d="M0 0 C0.66 0.33 1.32 0.66 2 1 C1.68160156 1.73347656 1.36320312 2.46695312 1.03515625 3.22265625 C-0.44023633 8.60644729 -0.43020294 13.87779678 -0.5625 19.4375 C-0.62291639 21.64462653 -0.6866299 23.85166567 -0.75390625 26.05859375 C-0.77783447 27.03111084 -0.8017627 28.00362793 -0.82641602 29.00561523 C-1 32 -1 32 -1.49801636 35.13259888 C-2.05336545 39.41114011 -2.17424058 43.56492963 -2.20532227 47.87280273 C-2.21522186 48.73213913 -2.22512146 49.59147552 -2.23532104 50.47685242 C-2.26671649 53.2957389 -2.29160596 56.11464219 -2.31640625 58.93359375 C-2.33699477 60.8965751 -2.35799173 62.85955221 -2.37937927 64.82252502 C-2.43440395 69.97301787 -2.48389919 75.12354942 -2.53222656 80.27410889 C-2.58258527 85.53628966 -2.63819612 90.79841467 -2.69335938 96.06054688 C-2.80070095 106.37365021 -2.9021986 116.68680209 -3 127 C-2.34 127 -1.68 127 -1 127 C-0.34 129.64 0.32 132.28 1 135 C0.34 135.33 -0.32 135.66 -1 136 C-3.75029277 129.73035895 -4.42933564 124.6678846 -4.37231445 117.86230469 C-4.37596512 116.87889099 -4.37961578 115.89547729 -4.38337708 114.88226318 C-4.39145122 111.64528878 -4.37788633 108.40882043 -4.36328125 105.171875 C-4.36276177 102.89951579 -4.36328286 100.62715613 -4.36479187 98.35479736 C-4.36470225 93.59030447 -4.3543033 88.82598112 -4.33618164 84.06152344 C-4.31365046 78.01023506 -4.31292349 71.95919751 -4.31969929 65.90787888 C-4.3230749 61.20955249 -4.31633985 56.51128124 -4.30657005 51.81296539 C-4.30276757 49.58546489 -4.30154883 47.35795819 -4.3031559 45.13045502 C-4.30446247 34.28734566 -4.14022089 23.52382489 -3.10620117 12.72363281 C-3.02889173 11.89701519 -2.95158228 11.07039757 -2.87193012 10.21873093 C-2.46572579 6.45802736 -2.06496347 3.22717183 0 0 Z " fill="#2E2CD2" transform="translate(112,289)"/>
<path d="M0 0 C4.07335788 4.07335788 3.05902924 11.84536176 3.09765625 17.34765625 C3.09109231 19.58595855 3.0792901 21.82425105 3.0625 24.0625 C3.05798828 25.21427734 3.05347656 26.36605469 3.04882812 27.55273438 C3.03714426 30.36854518 3.02076281 33.18424398 3 36 C2.34 36 1.68 36 1 36 C1 38.97 1 41.94 1 45 C1.763125 44.484375 2.52625 43.96875 3.3125 43.4375 C4.199375 42.963125 5.08625 42.48875 6 42 C6.99 42.33 7.98 42.66 9 43 C7.54634731 44.17249353 6.08692581 45.33783816 4.625 46.5 C3.81289062 47.1496875 3.00078125 47.799375 2.1640625 48.46875 C0 50 0 50 -2 50 C-1.855625 49.15566406 -1.71125 48.31132812 -1.5625 47.44140625 C0.71910027 31.70787103 0.18237928 15.85717709 0 0 Z " fill="#BB1251" transform="translate(238,416)"/>
<path d="M0 0 C0 17.16 0 34.32 0 52 C-1.65 51.34 -3.3 50.68 -5 50 C-4.01 49.505 -4.01 49.505 -3 49 C-2.34 49.33 -1.68 49.66 -1 50 C-1 34.16 -1 18.32 -1 2 C-2.65 3.65 -4.3 5.3 -6 7 C-9.30353279 9.31247295 -12.00882053 10.4298315 -16 11 C-12.20918993 6.84233734 -5.90642573 0 0 0 Z " fill="#3533C4" transform="translate(305,294)"/>
<path d="M0 0 C0.33 0 0.66 0 1 0 C1.33 17.82 1.66 35.64 2 54 C2.99 54 3.98 54 5 54 C5 54.66 5 55.32 5 56 C5.680625 55.938125 6.36125 55.87625 7.0625 55.8125 C10.91936125 56.05868263 13.51079594 57.35802162 17 59 C14 60 14 60 0 56 C0 37.52 0 19.04 0 0 Z " fill="#5B5AD9" transform="translate(323,297)"/>
<path d="M0 0 C0.66 0.33 1.32 0.66 2 1 C1.6803125 1.73863281 1.360625 2.47726562 1.03125 3.23828125 C-0.42277977 8.5421853 -0.39013045 13.71017991 -0.5 19.1875 C-0.66623858 27.32830099 -1.28825655 35.02745536 -3 43 C-3.33 43 -3.66 43 -4 43 C-4.2042673 32.96820605 -4.09782512 23.05657055 -3.125 13.0625 C-3.04652832 12.21719727 -2.96805664 11.37189453 -2.88720703 10.50097656 C-2.80325684 9.70788086 -2.71930664 8.91478516 -2.6328125 8.09765625 C-2.52283936 7.05363647 -2.52283936 7.05363647 -2.41064453 5.98852539 C-1.9477771 3.74711323 -1.10023648 1.99770949 0 0 Z " fill="#4443E2" transform="translate(112,289)"/>
<path d="M0 0 C6.94819499 -0.10080283 13.76638818 0.27732765 20.6875 0.875 C22.26337891 1.00817627 22.26337891 1.00817627 23.87109375 1.14404297 C31.63001425 1.82366516 39.3134818 2.72793537 47 4 C47 4.99 47 5.98 47 7 C46.34 6.67 45.68 6.34 45 6 C41.62671248 5.68416554 38.25265635 5.48866238 34.87109375 5.28125 C32 5 32 5 31 4 C29.22130274 3.84235595 27.43681524 3.74899323 25.65234375 3.68359375 C24.57275391 3.64169922 23.49316406 3.59980469 22.38085938 3.55664062 C20.67639648 3.49766602 20.67639648 3.49766602 18.9375 3.4375 C17.79732422 3.39431641 16.65714844 3.35113281 15.48242188 3.30664062 C12.65507805 3.20017161 9.82764262 3.09815793 7 3 C7 2.34 7 1.68 7 1 C4.69 1 2.38 1 0 1 C0 0.67 0 0.34 0 0 Z " fill="#5B1CB7" transform="translate(115,286)"/>
<path d="M0 0 C2.97 0.495 2.97 0.495 6 1 C5.67 1.66 5.34 2.32 5 3 C3.68 2.67 2.36 2.34 1 2 C1 15.86 1 29.72 1 44 C1.99 44 2.98 44 4 44 C4 43.34 4 42.68 4 42 C4.99 42.33 5.98 42.66 7 43 C1.125 48 1.125 48 0 48 C0 32.16 0 16.32 0 0 Z " fill="#2E2FDB" transform="translate(177,311)"/>
<path d="M0 0 C5.98971505 0.39388149 10.45804064 1.58169046 16 4 C18.66236599 4.46842346 21.30838364 4.72155693 24 5 C24.33 5.33 24.66 5.66 25 6 C26.34747084 6.23075082 27.70377565 6.41153063 29.0625 6.5625 C30.361875 6.706875 31.66125 6.85125 33 7 C33 7.66 33 8.32 33 9 C35.64 9 38.28 9 41 9 C41 9.66 41 10.32 41 11 C34.5397447 10.40916258 28.46441237 9.30666084 22.1875 7.6875 C21.31963867 7.46747314 20.45177734 7.24744629 19.55761719 7.02075195 C12.92681814 5.30999593 6.43805583 3.3423008 0 1 C0 0.67 0 0.34 0 0 Z " fill="#E12121" transform="translate(187,298)"/>
<path d="M0 0 C0.33 0.66 0.66 1.32 1 2 C8.92 2 16.84 2 25 2 C25.33 2.99 25.66 3.98 26 5 C19.55716721 5.10402152 13.33540878 4.73459309 6.9375 4 C6.07189453 3.90460938 5.20628906 3.80921875 4.31445312 3.7109375 C2.20915031 3.47830736 0.10450044 3.23978031 -2 3 C-1.34 2.01 -0.68 1.02 0 0 Z " fill="#C51146" transform="translate(117,283)"/>
<path d="M0 0 C0.33 0 0.66 0 1 0 C1.02506235 3.92861947 1.04302799 7.85720679 1.05493164 11.78588867 C1.0623244 13.76547892 1.07504274 15.74504701 1.08789062 17.72460938 C1.13817133 37.58548602 1.13817133 37.58548602 -2 47 C-2.33 47 -2.66 47 -3 47 C-3.125 39.25 -3.125 39.25 -2 37 C-0.88894775 29.17325413 -0.68380946 21.33151621 -0.4375 13.4375 C-0.39431641 12.14263672 -0.35113281 10.84777344 -0.30664062 9.51367188 C-0.20132615 6.34253616 -0.09919383 3.17133207 0 0 Z " fill="#601BAB" transform="translate(238,420)"/>
<path d="M0 0 C6.93 0 13.86 0 21 0 C21 0.66 21 1.32 21 2 C22.32 2.33 23.64 2.66 25 3 C22 4 22 4 19 3 C17.37280518 2.91856145 15.74248281 2.8924698 14.11328125 2.90234375 C13.17548828 2.90556641 12.23769531 2.90878906 11.27148438 2.91210938 C9.80678711 2.92467773 9.80678711 2.92467773 8.3125 2.9375 C7.32443359 2.94201172 6.33636719 2.94652344 5.31835938 2.95117188 C2.87884526 2.96295697 0.43945311 2.97940989 -2 3 C-1.34 2.67 -0.68 2.34 0 2 C0 1.34 0 0.68 0 0 Z " fill="#2D2CDE" transform="translate(302,187)"/>
<path d="M0 0 C0.66 0.33 1.32 0.66 2 1 C1.01 2.485 1.01 2.485 0 4 C-0.66 4 -1.32 4 -2 4 C-2.33 4.99 -2.66 5.98 -3 7 C-7.95860109 11.14903356 -13.86236527 13.252479 -20 15 C-17.39352468 12.11490145 -14.3745554 10.17349547 -11.125 8.0625 C-7.24840207 5.54125398 -3.56862658 2.9431293 0 0 Z " fill="#FEDBD9" transform="translate(290,285)"/>
<path d="M0 0 C0.66 0.33 1.32 0.66 2 1 C-3 6 -3 6 -4.875 7.5625 C-5.24625 8.036875 -5.6175 8.51125 -6 9 C-5.67 10.32 -5.34 11.64 -5 13 C-7.64 12.34 -10.28 11.68 -13 11 C-9.0299782 6.78185183 -4.69159716 3.38772897 0 0 Z " fill="#E61B1D" transform="translate(200,365)"/>
<path d="M0 0 C0 3 0 3 -1.6875 4.875 C-2.450625 5.57625 -3.21375 6.2775 -4 7 C-5.70496537 8.62746694 -7.37897032 10.28891311 -9 12 C-9 12.66 -9 13.32 -9 14 C-11.25 15.6875 -11.25 15.6875 -14 17 C-16.171875 16.58203125 -16.171875 16.58203125 -18 16 C-16.1265988 14.26907429 -14.25133718 12.54023837 -12.375 10.8125 C-11.85292969 10.32974609 -11.33085937 9.84699219 -10.79296875 9.34960938 C-7.28138707 6.11982129 -3.68700349 3.02821458 0 0 Z " fill="#E71B1D" transform="translate(453,178)"/>
<path d="M0 0 C1.31823302 0.59155331 2.62947051 1.19871463 3.9375 1.8125 C5.03384766 2.31716797 5.03384766 2.31716797 6.15234375 2.83203125 C8 4 8 4 9 7 C-1.37357631 11.40774487 -1.37357631 11.40774487 -7 12 C-7 11.34 -7 10.68 -7 10 C-5.68 10 -4.36 10 -3 10 C-3 9.34 -3 8.68 -3 8 C-1.35 8 0.3 8 2 8 C3.01111093 4.95086772 3.01111093 4.95086772 2 2 C1.34 2 0.68 2 0 2 C0 1.34 0 0.68 0 0 Z " fill="#DC1729" transform="translate(367,227)"/>
<path d="M0 0 C0 3.3 0 6.6 0 10 C-0.33 10 -0.66 10 -1 10 C-1 7.36 -1 4.72 -1 2 C-2.0828125 3.1446875 -2.0828125 3.1446875 -3.1875 4.3125 C-7.19399045 8.1409242 -10.48744891 10.2124927 -16 11 C-12.20918993 6.84233734 -5.90642573 0 0 0 Z " fill="#3B35DA" transform="translate(305,294)"/>
<path d="M0 0 C1.98 0 3.96 0 6 0 C6 0.66 6 1.32 6 2 C6.9075 1.95875 7.815 1.9175 8.75 1.875 C11.8782046 1.99531556 13.38614006 2.3914708 16 4 C16 4.66 16 5.32 16 6 C17.65 6 19.3 6 21 6 C21.33 6.99 21.66 7.98 22 9 C14.55697903 6.60309494 7.28162848 3.84737559 0 1 C0 0.67 0 0.34 0 0 Z " fill="#4242E0" transform="translate(183,459)"/>
<path d="M0 0 C8.05293006 -0.4026465 8.05293006 -0.4026465 12 3 C14.64934822 3.71433121 14.64934822 3.71433121 17 4 C17 4.66 17 5.32 17 6 C18.32 6.33 19.64 6.66 21 7 C17.72234308 8.10861925 16.04690481 7.92934526 12.890625 6.56640625 C12.13652344 6.24736328 11.38242188 5.92832031 10.60546875 5.59960938 C9.82816406 5.25736328 9.05085937 4.91511719 8.25 4.5625 C7.45722656 4.22412109 6.66445312 3.88574219 5.84765625 3.53710938 C3.89407194 2.70154018 1.9464328 1.85209558 0 1 C0 0.67 0 0.34 0 0 Z " fill="#3C3BDF" transform="translate(128,437)"/>
<path d="M0 0 C0.33 0.99 0.66 1.98 1 3 C0.01 3.8971875 0.01 3.8971875 -1 4.8125 C-3.3373846 6.87501834 -3.3373846 6.87501834 -3 10 C-5.31 9.67 -7.62 9.34 -10 9 C-6.83047153 5.73991357 -3.60062011 2.77762123 0 0 Z " fill="#E61918" transform="translate(427,201)"/>
<path d="M0 0 C1.32 0 2.64 0 4 0 C4 0.66 4 1.32 4 2 C4.680625 2.12375 5.36125 2.2475 6.0625 2.375 C10.78868357 3.38057097 14.95249472 4.30166315 19 7 C14.73493961 8.4216868 11.79962257 6.65386682 7.8125 5.0625 C7.06291016 4.77181641 6.31332031 4.48113281 5.54101562 4.18164062 C3.69075523 3.46274964 1.84493352 2.73245347 0 2 C0 1.34 0 0.68 0 0 Z " fill="#393ADB" transform="translate(399,375)"/>
<path d="M0 0 C0 0.33 0 0.66 0 1 C-5.87883349 3.61281488 -11.70731728 3.18328202 -18 3 C-18.33 2.34 -18.66 1.68 -19 1 C-16.39674384 0.63752129 -13.79279598 0.28472345 -11.1875 -0.0625 C-10.44951172 -0.16626953 -9.71152344 -0.27003906 -8.95117188 -0.37695312 C-5.56825221 -0.82086566 -3.27944975 -1.09314992 0 0 Z " fill="#4445DD" transform="translate(231,486)"/>
<path d="M0 0 C0.33 0 0.66 0 1 0 C1 7.92 1 15.84 1 24 C-3.455 23.01 -3.455 23.01 -8 22 C-4 21 -4 21 -1 21 C-0.67 14.07 -0.34 7.14 0 0 Z " fill="#3334DE" transform="translate(374,344)"/>
<path d="M0 0 C0.33 1.32 0.66 2.64 1 4 C1.763125 3.484375 2.52625 2.96875 3.3125 2.4375 C4.199375 1.963125 5.08625 1.48875 6 1 C6.99 1.33 7.98 1.66 9 2 C7.54634731 3.17249353 6.08692581 4.33783816 4.625 5.5 C3.81289062 6.1496875 3.00078125 6.799375 2.1640625 7.46875 C0 9 0 9 -2 9 C-1.34 6.03 -0.68 3.06 0 0 Z " fill="#D9172A" transform="translate(238,457)"/>
<path d="M0 0 C6.41688675 -0.10349817 12.62694402 0.25492456 19 1 C19 1.66 19 2.32 19 3 C15.04 3 11.08 3 7 3 C7 2.34 7 1.68 7 1 C4.69 1 2.38 1 0 1 C0 0.67 0 0.34 0 0 Z " fill="#4F1FC9" transform="translate(115,286)"/>
<path d="M0 0 C0 4.13781054 -1.71509607 5.20919996 -4.5 8.1875 C-5.3353125 9.08855469 -6.170625 9.98960937 -7.03125 10.91796875 C-8.00578125 11.94857422 -8.00578125 11.94857422 -9 13 C-9.99 12.67 -10.98 12.34 -12 12 C-8.04 8.04 -4.08 4.08 0 0 Z " fill="#E41113" transform="translate(136,262)"/>
<path d="M0 0 C0.74362793 0.01047363 1.48725586 0.02094727 2.25341797 0.03173828 C3.46191406 0.04140625 3.46191406 0.04140625 4.69482422 0.05126953 C5.95746094 0.07640625 5.95746094 0.07640625 7.24560547 0.10205078 C8.51984375 0.11558594 8.51984375 0.11558594 9.81982422 0.12939453 C11.9202043 0.15299431 14.02043991 0.18886595 16.12060547 0.22705078 C16.45060547 1.21705078 16.78060547 2.20705078 17.12060547 3.22705078 C16.25435547 3.06205078 15.38810547 2.89705078 14.49560547 2.72705078 C8.42298725 1.83438848 2.24094415 2.15065266 -3.87939453 2.22705078 C-1.87939453 0.22705078 -1.87939453 0.22705078 0 0 Z " fill="#FEDEDD" transform="translate(466.87939453125,170.77294921875)"/>
<path d="M0 0 C2.31 0 4.62 0 7 0 C7 0.66 7 1.32 7 2 C9.64 2 12.28 2 15 2 C15.33 3.32 15.66 4.64 16 6 C13.89402362 5.38112534 11.79027029 4.75468203 9.6875 4.125 C8.51574219 3.77695313 7.34398437 3.42890625 6.13671875 3.0703125 C3 2 3 2 0 0 Z " fill="#3C3BE2" transform="translate(340,195)"/>
<path d="M0 0 C5.6143991 1.56448671 10.86810338 3.16395187 16 6 C15.01 6.99 14.02 7.98 13 9 C13 8.01 13 7.02 13 6 C12.22914063 5.79503906 11.45828125 5.59007812 10.6640625 5.37890625 C9.66117187 5.10949219 8.65828125 4.84007812 7.625 4.5625 C6.62726563 4.29566406 5.62953125 4.02882812 4.6015625 3.75390625 C2 3 2 3 0 2 C0 1.34 0 0.68 0 0 Z " fill="#E11E1F" transform="translate(496,179)"/>
<path d="M0 0 C0.66 0.33 1.32 0.66 2 1 C-0.35380297 4.92300495 -2.64464931 5.83857315 -7 7 C-7 7.66 -7 8.32 -7 9 C-8.65 9.33 -10.3 9.66 -12 10 C-8.29909479 6.0747975 -4.45040344 3.05419844 0 0 Z " fill="#E31C1A" transform="translate(226,346)"/>
<path d="M0 0 C0 0.33 0 0.66 0 1 C2.31 1.66 4.62 2.32 7 3 C3.75432383 4.62283808 0.36160376 3.54725234 -3.125 3.0625 C-3.87910156 2.96259766 -4.63320312 2.86269531 -5.41015625 2.75976562 C-7.27417753 2.51201596 -9.13719288 2.25671943 -11 2 C-4.29242175 -1.43080725 -4.29242175 -1.43080725 0 0 Z " fill="#FDDCDA" transform="translate(194,237)"/>
<path d="M0 0 C1.41623216 -0.05447047 2.83308191 -0.09300508 4.25 -0.125 C5.03890625 -0.14820313 5.8278125 -0.17140625 6.640625 -0.1953125 C9.20731941 0.0171622 10.7916067 0.71345895 13 2 C13 1.34 13 0.68 13 0 C14.65 0 16.3 0 18 0 C15.79182758 1.97815446 14.56900967 2.96626064 11.5625 3.14453125 C10.2940625 2.98017578 10.2940625 2.98017578 9 2.8125 C8.154375 2.71582031 7.30875 2.61914062 6.4375 2.51953125 C4.00641635 2.00136759 2.15785286 1.21379223 0 0 Z " fill="#423FE1" transform="translate(227,227)"/>
<path d="M0 0 C5.46864457 1.01591421 10.76390013 2.07091057 16 4 C14.421875 5.1171875 14.421875 5.1171875 12 6 C8.765625 5.3203125 8.765625 5.3203125 5.25 4.125 C4.07953125 3.73570312 2.9090625 3.34640625 1.703125 2.9453125 C0.81109375 2.63335937 -0.0809375 2.32140625 -1 2 C-0.67 1.34 -0.34 0.68 0 0 Z " fill="#3E3DDC" transform="translate(344,357)"/>
<path d="M0 0 C2.48535643 3.15707438 3.03683285 4.98627078 3.3125 8.9375 C1.93687146 7.64784824 0.60483607 6.31060707 -0.6875 4.9375 C-0.6875 4.2775 -0.6875 3.6175 -0.6875 2.9375 C-1.30625 2.64875 -1.925 2.36 -2.5625 2.0625 C-4.6875 0.9375 -4.6875 0.9375 -6.6875 -1.0625 C-3.48681777 -2.60356922 -2.89001046 -2.21791501 0 0 Z " fill="#FED5D2" transform="translate(288.6875,346.0625)"/>
<path d="M0 0 C3.51705958 0.65271556 6.89325077 1.51393024 10.3125 2.5625 C11.19550781 2.83191406 12.07851563 3.10132813 12.98828125 3.37890625 C13.65214844 3.58386719 14.31601562 3.78882813 15 4 C15 4.66 15 5.32 15 6 C9.7415998 5.32584613 4.97361654 3.75734451 0 2 C0 1.34 0 0.68 0 0 Z " fill="#3738DB" transform="translate(361,201)"/>
<path d="M0 0 C2.12744999 0.78505901 4.25189674 1.5782606 6.375 2.375 C7.55835938 2.81585938 8.74171875 3.25671875 9.9609375 3.7109375 C13 5 13 5 15 7 C14.29875 6.855625 13.5975 6.71125 12.875 6.5625 C10.84479439 6.16528586 8.8002058 5.83848924 6.75 5.5625 C5.8425 5.376875 4.935 5.19125 4 5 C3.67 4.34 3.34 3.68 3 3 C2.01 2.67 1.02 2.34 0 2 C0 1.34 0 0.68 0 0 Z " fill="#3C38DE" transform="translate(180,474)"/>
<path d="M0 0 C3.63 1.32 7.26 2.64 11 4 C10.34 4.66 9.68 5.32 9 6 C5.20152621 5.70012049 2.7898911 4.5832325 0 2 C0 1.34 0 0.68 0 0 Z " fill="#3A3BE6" transform="translate(209,406)"/>
<path d="M0 0 C5.66104589 0.49658297 9.87674471 1.54510684 15 4 C14.34 4.66 13.68 5.32 13 6 C8.71 4.35 4.42 2.7 0 1 C0 0.67 0 0.34 0 0 Z " fill="#4343E1" transform="translate(168,453)"/>
<path d="M0 0 C0.33 0 0.66 0 1 0 C1.19818283 6.70518586 1.30844801 12.65176798 -1 19 C-1.33 19 -1.66 19 -2 19 C-2.125 11.25 -2.125 11.25 -1 9 C-0.77532169 7.46331135 -0.59203195 5.92031946 -0.4375 4.375 C-0.35371094 3.55773437 -0.26992187 2.74046875 -0.18359375 1.8984375 C-0.12300781 1.27195312 -0.06242188 0.64546875 0 0 Z " fill="#5C1FB6" transform="translate(237,448)"/>
<path d="M0 0 C0.99 0.33 1.98 0.66 3 1 C0.89495606 3.13713302 -1.25699562 5.19535795 -3.5 7.1875 C-4.0878125 7.71730469 -4.675625 8.24710937 -5.28125 8.79296875 C-7 10 -7 10 -10 10 C-6.7 6.7 -3.4 3.4 0 0 Z " fill="#EAEDFE" transform="translate(116,256)"/>
<path d="M0 0 C0 0.66 0 1.32 0 2 C1.32 2.33 2.64 2.66 4 3 C1 4 1 4 -2 3 C-4.22574335 2.77548542 -6.45581519 2.59217122 -8.6875 2.4375 C-9.86699219 2.35371094 -11.04648437 2.26992187 -12.26171875 2.18359375 C-13.16535156 2.12300781 -14.06898438 2.06242188 -15 2 C-15 1.67 -15 1.34 -15 1 C-13.06263299 0.83179449 -11.12510094 0.66548905 -9.1875 0.5 C-7.56908203 0.36078125 -7.56908203 0.36078125 -5.91796875 0.21875 C-3 0 -3 0 0 0 Z " fill="#565AE2" transform="translate(323,187)"/>
<path d="M0 0 C0 0.99 0 1.98 0 3 C-0.99 3.66 -1.98 4.32 -3 5 C-3.72382467 7.05925139 -3.72382467 7.05925139 -4 9 C-5.98 9 -7.96 9 -10 9 C-6.83047153 5.73991357 -3.60062011 2.77762123 0 0 Z " fill="#3635DD" transform="translate(279,311)"/>
<path d="M0 0 C0.66 0.33 1.32 0.66 2 1 C0.35 2.65 -1.3 4.3 -3 6 C-3.66 5.67 -4.32 5.34 -5 5 C-5 5.66 -5 6.32 -5 7 C-6.32 6.67 -7.64 6.34 -9 6 C-6.03 4.02 -3.06 2.04 0 0 Z " fill="#E6201B" transform="translate(286,222)"/>
<path d="M0 0 C-1.26941497 3.91402949 -2.51167694 5.79072873 -6 8 C-6.33 7.01 -6.66 6.02 -7 5 C-2.25 0 -2.25 0 0 0 Z " fill="#FEE0DD" transform="translate(281,431)"/>
<path d="M0 0 C1 3 1 3 0 6 C-1.875 7.75 -1.875 7.75 -4 9 C-4.99 8.67 -5.98 8.34 -7 8 C-4.69 5.36 -2.38 2.72 0 0 Z " fill="#FEE0DC" transform="translate(292,418)"/>
<path d="M0 0 C0.66 0.33 1.32 0.66 2 1 C-2.18461538 6.78461538 -2.18461538 6.78461538 -6.3125 7.875 C-7.6428125 7.936875 -7.6428125 7.936875 -9 8 C-6.14723863 5.06799526 -3.34920216 2.35684596 0 0 Z " fill="#FEE0E0" transform="translate(308,272)"/>
<path d="M0 0 C0.66 0.33 1.32 0.66 2 1 C-2.625 5 -2.625 5 -6 5 C-6 5.66 -6 6.32 -6 7 C-7.32 6.67 -8.64 6.34 -10 6 C-8.3811004 4.96951963 -6.75467511 3.95085322 -5.125 2.9375 C-4.22007812 2.36902344 -3.31515625 1.80054688 -2.3828125 1.21484375 C-1.20332031 0.61349609 -1.20332031 0.61349609 0 0 Z " fill="#661DAE" transform="translate(345,246)"/>
<path d="M0 0 C2.10494301 0.08708038 4.20902142 0.19525693 6.3125 0.3125 C8.07013672 0.39951172 8.07013672 0.39951172 9.86328125 0.48828125 C13.0983686 1.01604768 14.08684881 1.42380724 16 4 C10.63486869 3.152874 5.3212615 2.08318169 0 1 C0 0.67 0 0.34 0 0 Z " fill="#FDD2D0" transform="translate(321,212)"/>
<path d="M0 0 C0.33 1.32 0.66 2.64 1 4 C1.99 4 2.98 4 4 4 C4 3.34 4 2.68 4 2 C4.99 2.33 5.98 2.66 7 3 C1.125 8 1.125 8 0 8 C0 5.36 0 2.72 0 0 Z " fill="#3B38D8" transform="translate(177,351)"/>
<path d="M0 0 C0 0.99 0 1.98 0 3 C-2.25 5.25 -2.25 5.25 -5 7 C-6.32 6.67 -7.64 6.34 -9 6 C-6.03 4.02 -3.06 2.04 0 0 Z " fill="#E71F1D" transform="translate(154,249)"/>
<path d="M0 0 C-0.66 0.66 -1.32 1.32 -2 2 C-3.32 2 -4.64 2 -6 2 C-6 2.66 -6 3.32 -6 4 C-8.31 4.33 -10.62 4.66 -13 5 C-11.5977422 2.1954844 -9.93929378 1.9557882 -7.0625 0.8125 C-6.16660156 0.44769531 -5.27070313 0.08289063 -4.34765625 -0.29296875 C-2 -1 -2 -1 0 0 Z " fill="#5E1EB8" transform="translate(369,237)"/>
<path d="M0 0 C0.99 0 1.98 0 3 0 C5.09350689 3.4019487 5.17942163 6.05272412 5 10 C2.90217213 7.90217213 2.3490604 6.6200793 1.375 3.875 C1.11460937 3.15054687 0.85421875 2.42609375 0.5859375 1.6796875 C0.39257812 1.12539063 0.19921875 0.57109375 0 0 Z " fill="#E52425" transform="translate(232,397)"/>
<path d="M0 0 C2.97 0.495 2.97 0.495 6 1 C6 1.99 6 2.98 6 4 C4.02 4.99 4.02 4.99 2 6 C1.855625 5.38125 1.71125 4.7625 1.5625 4.125 C1.06847775 1.96741678 1.06847775 1.96741678 0 0 Z " fill="#3F3FDB" transform="translate(214,325)"/>
<path d="M0 0 C5.50366792 -0.32374517 9.43672206 -0.53286034 14 3 C11.01316063 4.49341969 9.04839022 3.40648676 5.875 2.5625 C4.77929688 2.27503906 3.68359375 1.98757813 2.5546875 1.69140625 C1.71164063 1.46324219 0.86859375 1.23507812 0 1 C0 0.67 0 0.34 0 0 Z " fill="#E52627" transform="translate(163,291)"/>
<path d="M0 0 C-2.94017338 1.52453435 -5.85472185 2.95157395 -9 4 C-9.99 3.67 -10.98 3.34 -12 3 C-7.89542386 0.01485372 -5.02254631 -0.2954439 0 0 Z " fill="#3432DB" transform="translate(178,217)"/>
<path d="M0 0 C2.97 1.65 5.94 3.3 9 5 C9 5.66 9 6.32 9 7 C5.625 6.3125 5.625 6.3125 2 5 C0.5625 2.375 0.5625 2.375 0 0 Z " fill="#3E3DDE" transform="translate(107,442)"/>
<path d="M0 0 C2.31 0 4.62 0 7 0 C7 0.66 7 1.32 7 2 C8.32 2.33 9.64 2.66 11 3 C8.83032311 3.95465783 7.43671207 4.14401212 5.17578125 3.3984375 C3.4315257 2.64129615 1.71372869 1.82390802 0 1 C0 0.67 0 0.34 0 0 Z " fill="#4344E4" transform="translate(138,441)"/>
<path d="M0 0 C1.0828125 0.37125 1.0828125 0.37125 2.1875 0.75 C-0.36318845 3.10448165 -1.52267358 3.73327924 -5.0625 3.9375 C-5.97 3.875625 -6.8775 3.81375 -7.8125 3.75 C-3.50480769 -0.31153846 -3.50480769 -0.31153846 0 0 Z " fill="#EA1013" transform="translate(256.8125,304.25)"/>
<path d="M0 0 C-4.0271824 2.20536179 -7.43545749 3.45660208 -12 4 C-12 3.34 -12 2.68 -12 2 C-10.68 2 -9.36 2 -8 2 C-8 1.34 -8 0.68 -8 0 C-2.25 -1.125 -2.25 -1.125 0 0 Z " fill="#BC0F49" transform="translate(372,235)"/>
<path d="M0 0 C4.87664009 -0.34833144 7.77050005 0.58314288 12 3 C8.52128379 4.15957207 7.65780355 3.77456651 4.3125 2.5625 C3.50425781 2.27503906 2.69601562 1.98757812 1.86328125 1.69140625 C1.24839844 1.46324219 0.63351562 1.23507813 0 1 C0 0.67 0 0.34 0 0 Z " fill="#3B3EDA" transform="translate(328,191)"/>
<path d="M0 0 C0.99 0.33 1.98 0.66 3 1 C0.36 2.98 -2.28 4.96 -5 7 C-5 6.01 -5 5.02 -5 4 C-4.34 4 -3.68 4 -3 4 C-2.67 3.34 -2.34 2.68 -2 2 C-1.34 1.34 -0.68 0.68 0 0 Z " fill="#FEDAD9" transform="translate(441,186)"/>
<path d="M0 0 C0.66 0 1.32 0 2 0 C2.66 2.64 3.32 5.28 4 8 C3.01 8.495 3.01 8.495 2 9 C0.50178941 5.62902617 0 3.79557881 0 0 Z " fill="#3837DD" transform="translate(109,416)"/>
<path d="M0 0 C0 1.98 0 3.96 0 6 C-1.65 5.01 -3.3 4.02 -5 3 C-2.25 0 -2.25 0 0 0 Z " fill="#3839D9" transform="translate(269,320)"/>
</svg>
