<?xml version="1.0" encoding="UTF-8"?>
<svg version="1.1" xmlns="http://www.w3.org/2000/svg" width="65" height="55">
<path d="M0 0 C21.45 0 42.9 0 65 0 C65 18.15 65 36.3 65 55 C43.55 55 22.1 55 0 55 C0 36.85 0 18.7 0 0 Z " fill="#201F1F" transform="translate(0,0)"/>
<path d="M0 0 C1.98 0 3.96 0 6 0 C6.01417969 0.96421875 6.02835938 1.9284375 6.04296875 2.921875 C6.09066406 4.18515625 6.13835938 5.4484375 6.1875 6.75 C6.22230469 8.00296875 6.25710937 9.2559375 6.29296875 10.546875 C6.69240799 14.12939246 6.69240799 14.12939246 9.36328125 16.328125 C10.23339844 16.87984375 11.10351562 17.4315625 12 18 C12.99 18.66 13.98 19.32 15 20 C15.1875 23.625 15.1875 23.625 15 27 C12.40555601 27.97735904 11.32581666 28.13177227 8.7109375 27.07421875 C7.94007812 26.61660156 7.16921875 26.15898438 6.375 25.6875 C5.21097656 25.01267578 5.21097656 25.01267578 4.0234375 24.32421875 C2 23 2 23 0 21 C-0.22705078 18.84521484 -0.22705078 18.84521484 -0.1953125 16.2109375 C-0.18886719 15.26992188 -0.18242187 14.32890625 -0.17578125 13.359375 C-0.15902344 12.37453125 -0.14226563 11.3896875 -0.125 10.375 C-0.11597656 9.38242187 -0.10695313 8.38984375 -0.09765625 7.3671875 C-0.07404116 4.91121866 -0.04110799 2.45572832 0 0 Z " fill="#2927EC" transform="translate(12,25)"/>
<path d="M0 0 C3.09596785 0 4.40353865 0.43463379 6.6484375 2.5625 C7.09445313 3.036875 7.54046875 3.51125 8 4 C6.03719785 5.73388974 4.06921159 7.46079295 2.08984375 9.17578125 C0.49385552 10.5689149 -1.07258433 11.99597116 -2.625 13.4375 C-5.65009912 15.42769679 -7.44399109 15.46382725 -11 15 C-11.99 14.34 -12.98 13.68 -14 13 C-16.32387947 12.60612212 -18.65793749 12.26513915 -21 12 C-19.48839546 8.15227934 -17.58935788 6.06197155 -14 4 C-11.84765625 4.1484375 -11.84765625 4.1484375 -9.5 4.5625 C-7.18819145 5.02866829 -7.18819145 5.02866829 -5 5 C-2.24958334 2.58333229 -2.24958334 2.58333229 0 0 Z " fill="#F20406" transform="translate(34,13)"/>
<path d="M0 0 C2.31 0.66 4.62 1.32 7 2 C7 8.93 7 15.86 7 23 C2 22 2 22 0 21 C0 14.07 0 7.14 0 0 Z " fill="#2828E0" transform="translate(45,18)"/>
<path d="M0 0 C1.9375 0.8125 1.9375 0.8125 3.9375 2.8125 C4.56203531 6.54169644 4.58174609 10.08661009 3.9375 13.8125 C2.14341632 16.26371898 0.58977128 17.2100861 -2.0625 18.8125 C-2.3925 15.1825 -2.7225 11.5525 -3.0625 7.8125 C-4.3825 7.4825 -5.7025 7.1525 -7.0625 6.8125 C-3.85165663 -0.3501506 -3.85165663 -0.3501506 0 0 Z " fill="#F40406" transform="translate(29.0625,32.1875)"/>
<path d="M0 0 C0 6.6 0 13.2 0 20 C-5 19 -5 19 -6 18 C-6.15349136 15.52642763 -6.23159885 13.09995481 -6.25 10.625 C-6.270625 9.93921875 -6.29125 9.2534375 -6.3125 8.546875 C-6.33549594 5.59189639 -6.34811183 3.51807232 -4.671875 1.0234375 C-3 0 -3 0 0 0 Z " fill="#2B27E2" transform="translate(43,17)"/>
<path d="M0 0 C2.475 0.99 2.475 0.99 5 2 C5 2.99 5 3.98 5 5 C5.66 5 6.32 5 7 5 C7.26218749 8.14624993 7.24754367 9.61837017 5.5 12.3125 C4.7575 13.1478125 4.7575 13.1478125 4 14 C5.32 14.33 6.64 14.66 8 15 C8.33 16.65 8.66 18.3 9 20 C1.91878173 16.69543147 1.91878173 16.69543147 0 14 C-0.29296875 10.64453125 -0.29296875 10.64453125 -0.1875 6.8125 C-0.16042969 5.54019531 -0.13335938 4.26789062 -0.10546875 2.95703125 C-0.07066406 1.98121094 -0.03585938 1.00539063 0 0 Z " fill="#2E246B" transform="translate(18,25)"/>
<path d="M0 0 C0 4.62 0 9.24 0 14 C-1.32 13.67 -2.64 13.34 -4 13 C-4 12.34 -4 11.68 -4 11 C-4.99 10.67 -5.98 10.34 -7 10 C-4.27272727 0 -4.27272727 0 0 0 Z " fill="#282574" transform="translate(37,21)"/>
<path d="M0 0 C1.1446875 0.3403125 1.1446875 0.3403125 2.3125 0.6875 C2.3125 4.20466303 1.48804415 5.05871748 -0.6875 7.6875 C-2.3375 7.3575 -3.9875 7.0275 -5.6875 6.6875 C-5.6875 2.6875 -5.6875 2.6875 -4.5 0.875 C-2.6875 -0.3125 -2.6875 -0.3125 0 0 Z " fill="#E90706" transform="translate(54.6875,7.3125)"/>
<path d="M0 0 C0 1.32 0 2.64 0 4 C0.66 4.33 1.32 4.66 2 5 C1.67 5.99 1.34 6.98 1 8 C0.34 7.34 -0.32 6.68 -1 6 C-3.60280568 6.32041397 -3.60280568 6.32041397 -6 7 C-6 5.68 -6 4.36 -6 3 C-6.66 3 -7.32 3 -8 3 C-8 2.34 -8 1.68 -8 1 C-2.25 0 -2.25 0 0 0 Z " fill="#341F22" transform="translate(31,27)"/>
<path d="M0 0 C0.66 0 1.32 0 2 0 C2 0.99 2 1.98 2 3 C3.65 3.33 5.3 3.66 7 4 C7.33 5.65 7.66 7.3 8 9 C2.25 6.25 2.25 6.25 0 4 C0 2.68 0 1.36 0 0 Z " fill="#2F212D" transform="translate(19,36)"/>
</svg>
