<?xml version="1.0" encoding="UTF-8"?>
<svg version="1.1" xmlns="http://www.w3.org/2000/svg" width="588" height="122">
<path d="M0 0 C194.04 0 388.08 0 588 0 C588 40.26 588 80.52 588 122 C393.96 122 199.92 122 0 122 C0 81.74 0 41.48 0 0 Z " fill="#FEFEFE" transform="translate(0,0)"/>
<path d="M0 0 C32.18869 -0.1209091 32.18869 -0.1209091 45.66015625 -0.14648438 C54.96798654 -0.16429678 64.27573546 -0.18525553 73.58349609 -0.22631836 C80.36179628 -0.25620779 87.14003055 -0.27557191 93.9183948 -0.28226548 C97.5079481 -0.28617855 101.09731283 -0.2953834 104.68680573 -0.31719017 C108.69265632 -0.34132928 112.6981785 -0.34197029 116.70410156 -0.34057617 C117.89596573 -0.351362 119.0878299 -0.36214783 120.31581116 -0.3732605 C121.95219795 -0.36707451 121.95219795 -0.36707451 123.62164307 -0.36076355 C125.04304785 -0.36491162 125.04304785 -0.36491162 126.49316788 -0.36914349 C129.48456163 0.07135411 130.84360719 0.90463185 133 3 C136.46448598 16.30084064 129.56878734 27.7150207 123.53466797 39.10351562 C121.20798884 43.49481712 118.97822784 47.93315975 116.75 52.375 C116.31107422 53.24036377 115.87214844 54.10572754 115.41992188 54.99731445 C112.53541224 60.73938045 109.81854031 66.54282582 107.18359375 72.40234375 C106.68809525 73.50295135 106.68809525 73.50295135 106.18258667 74.62579346 C104.54241437 78.27590603 102.91434882 81.93088319 101.30175781 85.59326172 C100.69482932 86.95417644 100.08773984 88.31501937 99.48046875 89.67578125 C98.95348389 90.87114502 98.42649902 92.06650879 97.88354492 93.2980957 C97.42830444 94.174701 97.42830444 94.174701 96.96386719 95.0690155 C95.92649466 97.04301756 95.92649466 97.04301756 95.16015625 99.42671204 C93.78269236 102.49782591 92.73334921 103.99477814 90 106 C83.47774135 107.70762065 76.39946 107.04371227 69.7265625 106.87890625 C67.94558233 106.86566533 66.16456716 106.85648885 64.38354492 106.85144043 C57.79682743 106.80435002 51.21086085 106.67869688 44.625 106.5625 C22.535625 106.2840625 22.535625 106.2840625 0 106 C0 71.02 0 36.04 0 0 Z " fill="#0285FF" transform="translate(140,6)"/>
<path d="M0 0 C1.30931252 -0.00072321 1.30931252 -0.00072321 2.6450758 -0.00146103 C5.46131321 0.00151674 8.27648217 0.03193953 11.0925293 0.06347656 C12.83483368 0.06936016 14.57714513 0.07343936 16.31945801 0.07568359 C22.76866274 0.09662671 29.21771597 0.15247184 35.66674805 0.20410156 C57.29206055 0.32785156 57.29206055 0.32785156 79.35424805 0.45410156 C79.35424805 35.43410156 79.35424805 70.41410156 79.35424805 106.45410156 C37.11424805 106.45410156 -5.12575195 106.45410156 -48.64575195 106.45410156 C-48.64575195 72.06795792 -48.64575195 72.06795792 -41.39575195 60.20410156 C-40.65575748 58.88394664 -39.92291566 57.55976039 -39.19677734 56.23193359 C-37.73717248 53.56890704 -36.25415771 50.92141785 -34.75366211 48.28125 C-31.49776532 42.46855616 -28.80559533 36.40682958 -26.08325195 30.32910156 C-25.12396808 28.22938696 -24.16311227 26.13038957 -23.20043945 24.03222656 C-22.763125 23.07638672 -22.32581055 22.12054687 -21.87524414 21.13574219 C-20.17938727 17.43691536 -18.47386521 13.74519099 -16.70825195 10.07910156 C-16.22485352 9.06074219 -15.74145508 8.04238281 -15.2434082 6.99316406 C-11.30414506 0.73272141 -7.0485132 -0.12579621 0 0 Z " fill="#EB053C" transform="translate(48.645751953125,5.5458984375)"/>
</svg>
